<?xml version="1.0" encoding="UTF-8" standalone="no"?>
<!-- Created with Inkscape (http://www.inkscape.org/) -->

<svg
   xmlns:dc="http://purl.org/dc/elements/1.1/"
   xmlns:cc="http://creativecommons.org/ns#"
   xmlns:rdf="http://www.w3.org/1999/02/22-rdf-syntax-ns#"
   xmlns:svg="http://www.w3.org/2000/svg"
   xmlns="http://www.w3.org/2000/svg"
   xmlns:xlink="http://www.w3.org/1999/xlink"
   xmlns:sodipodi="http://sodipodi.sourceforge.net/DTD/sodipodi-0.dtd"
   xmlns:inkscape="http://www.inkscape.org/namespaces/inkscape"
   width="1920"
   height="720"
   viewBox="0 0 1920 719.99996"
   id="svg4193"
   version="1.1"
   inkscape:version="0.91 r13725"
   sodipodi:docname="mediaccc.svg"
   inkscape:export-filename="/home/wonko/git/voc/CCC-TV/resources/graphics/winkekatze/pixels/top-shelf.png"
   inkscape:export-xdpi="89.911865"
   inkscape:export-ydpi="89.911865">
  <defs
     id="defs4195">
    <linearGradient
       inkscape:collect="always"
       id="linearGradient4248">
      <stop
         id="stop4252"
         offset="0"
         style="stop-color:#ffffff;stop-opacity:0" />
      <stop
         id="stop4250"
         offset="1"
         style="stop-color:#92bcd7;stop-opacity:1;" />
    </linearGradient>
    <radialGradient
       inkscape:collect="always"
       xlink:href="#linearGradient4248"
       id="radialGradient4254"
       cx="623.58759"
       cy="-759.18445"
       fx="623.58759"
       fy="-759.18445"
       r="643.47992"
       gradientTransform="matrix(-0.0042722,0.59294795,-0.60379542,-0.00435035,1027.5996,291.76885)"
       gradientUnits="userSpaceOnUse" />
  </defs>
  <sodipodi:namedview
     id="base"
     pagecolor="#ffffff"
     bordercolor="#666666"
     borderopacity="1.0"
     inkscape:pageopacity="0.0"
     inkscape:pageshadow="2"
     inkscape:zoom="0.87275564"
     inkscape:cx="981.68672"
     inkscape:cy="230.95568"
     inkscape:document-units="px"
     inkscape:current-layer="layer1"
     showgrid="false"
     inkscape:window-width="2394"
     inkscape:window-height="1411"
     inkscape:window-x="55"
     inkscape:window-y="0"
     inkscape:window-maximized="1"
     units="px"
     showguides="false"
     inkscape:guide-bbox="true"
     inkscape:snap-to-guides="false"
     fit-margin-top="0"
     fit-margin-left="0"
     fit-margin-right="0"
     fit-margin-bottom="0"
     borderlayer="true">
    <inkscape:grid
       type="xygrid"
       id="grid4822"
       originx="15.373612"
       originy="-8.8499871" />
    <sodipodi:guide
       position="15.373612,-8.8499871"
       orientation="0,128"
       id="guide4841" />
    <sodipodi:guide
       position="143.37361,-8.8499871"
       orientation="-128,0"
       id="guide4843" />
    <sodipodi:guide
       position="143.37361,119.15"
       orientation="0,-128"
       id="guide4845" />
    <sodipodi:guide
       position="15.373612,119.15"
       orientation="128,0"
       id="guide4847" />
  </sodipodi:namedview>
  <metadata
     id="metadata4198">
    <rdf:RDF>
      <cc:Work
         rdf:about="">
        <dc:format>image/svg+xml</dc:format>
        <dc:type
           rdf:resource="http://purl.org/dc/dcmitype/StillImage" />
        <dc:title></dc:title>
      </cc:Work>
    </rdf:RDF>
  </metadata>
  <g
     inkscape:label="Layer 1"
     inkscape:groupmode="layer"
     id="layer1"
     transform="translate(15.373613,-323.51217)">
    <rect
       style="color:#000000;clip-rule:nonzero;display:inline;overflow:visible;visibility:visible;opacity:1;isolation:auto;mix-blend-mode:normal;color-interpolation:sRGB;color-interpolation-filters:linearRGB;solid-color:#000000;solid-opacity:1;fill:url(#radialGradient4254);fill-opacity:1;fill-rule:evenodd;stroke:none;stroke-width:5.95984268;stroke-linecap:butt;stroke-linejoin:miter;stroke-miterlimit:4;stroke-dasharray:none;stroke-dashoffset:0;stroke-opacity:1;color-rendering:auto;image-rendering:auto;shape-rendering:auto;text-rendering:auto;enable-background:accumulate"
       id="rect4246"
       width="1922.6459"
       height="720.70575"
       x="-15.373612"
       y="322.8064"
       ry="0" />
    <g
       id="g4336"
       transform="translate(543.10735,21.770126)">
      <g
         transform="matrix(3.874061,0,0,3.874061,792.89419,-3144.8609)"
         id="g4160">
        <path
           style="fill:#000000;fill-rule:evenodd;stroke:none;stroke-width:1px;stroke-linecap:butt;stroke-linejoin:miter;stroke-opacity:1"
           d="m -1.9590849,972.89426 c -0.147588,-7.05069 -6.0588897,-17.38908 -8.7000081,-23.15576 -2.641117,-5.76668 -13.886962,-3.06243 -17.104363,0.003 -3.217401,3.06555 -4.780364,10.65766 -2.673512,12.02711 6.59814,4.28878 14.418582,-0.78077 14.181914,5.62709 -0.04074,1.10296 -0.291953,32.11086 8.2476741,32.11086 1.992447,0 6.383603,1.71314 8.727946,-2.02509 3.616524,-5.76666 4.930624,-18.38093 5.013337,-22.67206 0.09347,-4.84936 -7.632955,0.95262 -7.692988,-1.91527 z"
           id="path4165"
           inkscape:connector-curvature="0"
           sodipodi:nodetypes="szzssssss"
           inkscape:export-filename="/home/wonko/Downloads/dxdwxx"
           inkscape:export-xdpi="276.39487"
           inkscape:export-ydpi="276.39487" />
        <path
           style="fill:#ffffff;fill-rule:evenodd;stroke:none;stroke-width:1px;stroke-linecap:butt;stroke-linejoin:miter;stroke-opacity:1"
           d="m -28.188244,961.11885 c 1.13186,0.45852 2.61267,-4.69734 3.833578,-4.45033 1.220909,0.24699 0.572701,2.85514 1.141479,4.70974 0.553537,-1.36486 1.201021,-4.42089 2.753953,-4.39036 1.552931,0.0304 1.322976,2.28714 2.165293,4.56643 0.283377,0.76681 1.193279,-4.06357 2.375157,-3.9465 1.181877,0.11702 2.382579,4.15815 2.382579,4.15815 3.408614,-0.91696 3.223187,-10.79717 -1.037515,-12.94914 -4.260702,-2.15195 -19.978204,9.72379 -13.614524,12.30167 z"
           id="path4189"
           inkscape:connector-curvature="0"
           sodipodi:nodetypes="czczszszsc"
           inkscape:export-filename="/home/wonko/Downloads/dxdwxx"
           inkscape:export-xdpi="276.39487"
           inkscape:export-ydpi="276.39487" />
        <path
           style="fill:#4c82aa;fill-opacity:1;fill-rule:evenodd;stroke:none;stroke-width:1px;stroke-linecap:butt;stroke-linejoin:miter;stroke-opacity:1"
           d="m 0.3448991,983.10166 c 1.801217,-3.30395 0,0 -4.58781,-8.83531 -1.500394,-2.88949 -1.604391,-3.99503 -2.082307,-5.94049 -0.910708,-3.70722 -0.319216,-6.34821 -2.556382,-4.03702 -2.2371651,2.31119 -6.6203851,1.85676 -4.5013891,3.63926 2.118994,1.7825 0.28219,2.68843 1.067097,9.98082 0.784906,7.29242 0.359476,20.50996 6.2973611,20.50996 5.937885,0 2.573187,-8.36483 6.36343,-15.31722 z"
           id="path4165-3"
           inkscape:connector-curvature="0"
           sodipodi:nodetypes="ssszzzzs"
           inkscape:transform-center-x="2.9226265"
           inkscape:transform-center-y="-5.6504112"
           inkscape:export-filename="/home/wonko/Downloads/dxdwxx"
           inkscape:export-xdpi="276.39487"
           inkscape:export-ydpi="276.39487" />
      </g>
      <path
         inkscape:export-ydpi="276.39487"
         inkscape:export-xdpi="276.39487"
         inkscape:export-filename="/home/wonko/Downloads/dxdwxx"
         sodipodi:nodetypes="aczassa"
         inkscape:connector-curvature="0"
         id="path4747"
         d="m 811.94547,617.65035 c -12.75574,58.44339 -63.79939,125.42803 -32.10474,176.51101 55.40564,92.71519 470.69327,85.10807 416.07287,-9.18346 -54.6204,-94.29143 -48.4305,-118.0605 -69.6368,-178.20878 -19.7926,-56.1389 15.1031,-199.72144 -53.6941,-170.31406 -80.61685,34.45977 -163.1,35.73553 -215.4827,4.23469 -75.1738,-45.20645 -32.17757,117.5036 -45.15453,176.9606 z"
         style="fill:#4c82aa;fill-opacity:1;fill-rule:evenodd;stroke:none;stroke-width:3;stroke-linecap:butt;stroke-linejoin:miter;stroke-miterlimit:4;stroke-dasharray:none;stroke-opacity:1" />
      <circle
         r="49.329094"
         inkscape:export-ydpi="276.39487"
         inkscape:export-xdpi="276.39487"
         inkscape:export-filename="/home/wonko/Downloads/dxdwxx"
         cy="536.67694"
         cx="903.24786"
         id="path4786"
         style="fill:#ffffff;fill-opacity:1;stroke:none;stroke-width:1;stroke-linecap:round;stroke-linejoin:bevel;stroke-miterlimit:4;stroke-dasharray:none;stroke-dashoffset:0;stroke-opacity:1" />
      <circle
         r="49.329094"
         inkscape:export-ydpi="276.39487"
         inkscape:export-xdpi="276.39487"
         inkscape:export-filename="/home/wonko/Downloads/dxdwxx"
         cy="537.88"
         cx="1023.9638"
         id="path4786-0"
         style="fill:#ffffff;fill-opacity:1;stroke:none;stroke-width:1;stroke-linecap:round;stroke-linejoin:bevel;stroke-miterlimit:4;stroke-dasharray:none;stroke-dashoffset:0;stroke-opacity:1" />
      <circle
         r="14.838833"
         inkscape:export-ydpi="276.39487"
         inkscape:export-xdpi="276.39487"
         inkscape:export-filename="/home/wonko/Downloads/dxdwxx"
         cy="540.50653"
         cx="905.04755"
         id="path4803"
         style="fill:#000000;fill-opacity:1;stroke:none;stroke-width:1;stroke-linecap:round;stroke-linejoin:bevel;stroke-miterlimit:4;stroke-dasharray:none;stroke-dashoffset:0;stroke-opacity:1" />
      <circle
         r="14.838833"
         inkscape:export-ydpi="276.39487"
         inkscape:export-xdpi="276.39487"
         inkscape:export-filename="/home/wonko/Downloads/dxdwxx"
         cy="538.56122"
         cx="1026.5052"
         id="path4803-4"
         style="fill:#000000;fill-opacity:1;stroke:none;stroke-width:1;stroke-linecap:round;stroke-linejoin:bevel;stroke-miterlimit:4;stroke-dasharray:none;stroke-dashoffset:0;stroke-opacity:1" />
      <path
         inkscape:export-filename="/home/wonko/Downloads/dxdwxx"
         inkscape:export-ydpi="276.39487"
         inkscape:export-xdpi="276.39487"
         sodipodi:nodetypes="sssss"
         inkscape:connector-curvature="0"
         id="path4820"
         d="m 868.2752,625.18981 c 88.67425,33.49246 173.2876,15.6103 212.9613,5.57726 34.3966,-8.69851 38.26,61.55112 58.0896,132.14457 22.9205,81.59702 -241.72612,113.51462 -332.65147,35.06955 -41.61569,-35.90364 20.10703,-188.46358 61.60057,-172.79138 z"
         style="fill:#ee9225;fill-opacity:0;fill-rule:evenodd;stroke:none;stroke-width:1px;stroke-linecap:butt;stroke-linejoin:miter;stroke-opacity:1" />
      <path
         inkscape:export-ydpi="276"
         inkscape:export-xdpi="276"
         inkscape:export-filename="/home/wonko/Downloads/dxdwxx"
         inkscape:connector-curvature="0"
         id="path4179-4"
         d="m 1029.787,627.72604 62.1766,4.6767"
         style="fill:#92bcd7;fill-opacity:1;fill-rule:evenodd;stroke:#000000;stroke-width:3.54034734px;stroke-linecap:butt;stroke-linejoin:miter;stroke-opacity:1" />
      <path
         inkscape:export-ydpi="276.39487"
         inkscape:export-xdpi="276.39487"
         inkscape:export-filename="/home/wonko/Downloads/dxdwxx"
         inkscape:connector-curvature="0"
         id="path4747-3"
         d="m 833.51813,425.53551 c -7.76261,0.31109 -14.33082,4.56326 -18.43722,10.63945 -8.21279,12.15239 -9.74921,30.86085 -9.88542,52.62839 -0.13621,21.76749 1.67765,46.54246 2.6974,69.54218 1.01975,22.99972 1.15127,44.32925 -1.82338,58.16895 -6.1023,28.39124 -24.24903,59.23756 -32.34612,91.2105 -15.37767,60.72192 -9.27927,76.63733 -2.82361,87.09962 26.55183,43.03036 45.65169,61.76222 147.282,68.36128 116.31152,7.55211 301.26342,-7.22705 287.50392,-57.58906 -25.8173,-94.4961 -50.7032,-127.6748 -76.1625,-200.74013 -9.0267,-25.90519 -5.7663,-76.51747 -8.1299,-116.74967 -1.1819,-20.11614 -3.5634,-37.82269 -11.4225,-49.96287 -3.9295,-6.07007 -9.6796,-10.74061 -16.9152,-12.32412 -7.2357,-1.58349 -15.4144,-0.21308 -24.6684,3.80355 -78.82513,34.21469 -159.08012,34.98037 -208.76163,4.64213 -9.89173,-6.04044 -18.34484,-9.04167 -26.10744,-8.7302 z m 249.70477,11.46312 c 2.9045,-0.46307 5.3334,-0.38834 7.3463,0.0527 4.0257,0.88104 6.9323,3.09096 9.6669,7.31508 5.4691,8.44825 8.455,24.94116 9.5991,44.41479 2.2881,38.94718 -1.9565,89.09322 8.7552,119.83447 24.5185,70.36531 65.1587,160.19967 59.0578,197.24964 -6.101,37.04997 -132.4708,41.91424 -186.04151,45.97503 -68.7804,3.50757 -170.33984,-2.12028 -206.83753,-59.0066 -14.44892,-23.64766 -10.20986,-51.30303 -0.0678,-81.46212 10.14205,-30.15953 26.11288,-61.87542 32.68517,-92.45339 3.47255,-16.15618 3.09446,-37.84388 2.06449,-61.07402 -1.02997,-23.23015 -2.81419,-47.89991 -2.68232,-68.97313 0.13183,-21.0733 2.7311,-38.60285 7.91888,-46.27914 2.59389,-3.83815 5.04916,-5.39258 9.29772,-5.56308 4.24856,-0.17084 10.79279,1.67519 19.57494,7.03809 54.41739,33.23018 138.07811,31.41643 219.46076,-3.90839 3.918,-1.7006 7.2974,-2.69661 10.2019,-3.15965 z"
         style="color:#000000;font-style:normal;font-variant:normal;font-weight:normal;font-stretch:normal;font-size:medium;line-height:normal;font-family:sans-serif;text-indent:0;text-align:start;text-decoration:none;text-decoration-line:none;text-decoration-style:solid;text-decoration-color:#000000;letter-spacing:normal;word-spacing:normal;text-transform:none;direction:ltr;block-progression:tb;writing-mode:lr-tb;baseline-shift:baseline;text-anchor:start;white-space:normal;clip-rule:nonzero;display:inline;overflow:visible;visibility:visible;opacity:1;isolation:auto;mix-blend-mode:normal;color-interpolation:sRGB;color-interpolation-filters:linearRGB;solid-color:#000000;solid-opacity:1;fill:#000000;fill-opacity:1;fill-rule:evenodd;stroke:none;stroke-width:3;stroke-linecap:butt;stroke-linejoin:miter;stroke-miterlimit:4;stroke-dasharray:none;stroke-dashoffset:0;stroke-opacity:1;color-rendering:auto;image-rendering:auto;shape-rendering:auto;text-rendering:auto;enable-background:accumulate"
         sodipodi:nodetypes="csssssssssssscscccssszccssssscsscc" />
      <g
         inkscape:export-ydpi="276.39487"
         inkscape:export-xdpi="276.39487"
         inkscape:export-filename="/home/wonko/Downloads/dxdwxx"
         transform="matrix(3.874061,0,0,3.874061,748.18586,-3628.821)"
         id="g4175">
        <path
           style="fill:#92bcd7;fill-opacity:1"
           d="m 86.793522,1163.5921 c -1.511956,-1.0197 -2.306647,-2.6686 -2.454234,-5.092 -0.109987,-1.806 0.07055,-3.167 0.84733,-6.3875 0.693747,-2.8763 0.786477,-3.4518 0.830675,-5.1559 l 0.03842,-1.4814 -0.214691,-0.3945 c -0.118092,-0.2169 -0.235271,-0.3922 -0.260422,-0.3894 -0.07794,0.01 -1.023765,1.1306 -1.598426,1.8963 -1.253094,1.6695 -1.964281,3.3164 -2.09378,4.8484 l -0.0501,0.5927 -0.404359,0.084 c -0.814576,0.1691 -0.834033,0.1635 -0.948894,-0.271 -0.153501,-0.5806 -0.08104,-2.0311 0.133378,-2.6688 0.290757,-0.865 0.943345,-2.0764 1.876141,-3.4828 1.03551,-1.5615 1.710621,-2.7945 1.959198,-3.5785 0.203448,-0.6417 0.227915,-0.6566 1.193236,-0.7251 l 0.669955,-0.048 0.239533,0.61 c 0.570453,1.4528 0.780417,2.4745 0.848735,4.1297 0.07803,1.8911 -0.121432,3.5792 -0.909479,7.6969 -0.683023,3.5692 -0.674655,3.4875 -0.471636,4.5975 0.350634,1.9169 0.832747,3.0275 1.737334,4.0015 0.217994,0.2347 0.224739,0.2638 0.170329,0.7349 -0.03121,0.2698 -0.08633,0.5688 -0.122527,0.6646 -0.103645,0.2738 -0.425513,0.2162 -1.015724,-0.182 z m -6.934514,-7.6688 -0.338295,-0.03 0.04161,-0.3101 c 0.06379,-0.4757 0.369461,-0.8711 0.858172,-1.1102 0.379071,-0.1855 0.55525,-0.2149 1.647761,-0.2754 0.672821,-0.037 1.353855,-0.069 1.513398,-0.071 l 0.290091,0 0,0.7335 c 0,0.8667 0.221937,0.7466 -1.784178,0.9659 -1.410674,0.1543 -1.548131,0.1605 -2.228545,0.1 z m 6.983192,-0.9905 c -0.06397,-0.2549 0.01798,-0.7618 0.171233,-1.058 0.18337,-0.3547 0.701714,-0.8848 1.344957,-1.3759 0.662938,-0.506 1.238228,-1.0963 1.430277,-1.4677 0.413531,-0.7997 0.693656,-3.4447 0.510423,-4.8194 -0.249599,-1.8727 -1.218707,-3.9575 -2.482333,-5.34 -0.212647,-0.2327 -0.386636,-0.4574 -0.386636,-0.4993 0,-0.042 0.371258,-0.42 0.825017,-0.8402 0.581642,-0.5384 0.835895,-0.7294 0.861904,-0.6477 0.102376,0.3221 1.393326,2.7304 1.683316,3.1403 0.627428,0.887 1.460193,1.5191 2.278073,1.7292 0.190744,0.049 0.478042,0.1397 0.638452,0.2013 0.422246,0.1623 1.001999,0.1384 1.97536,-0.081 1.456186,-0.3287 1.919755,-0.2352 2.253487,0.4541 0.276748,0.5717 0.22128,0.6725 -0.503468,0.9157 -1.2709,0.4264 -2.9455,0.4448 -4.623843,0.051 -0.517029,-0.1214 -0.706021,-0.1389 -0.773573,-0.071 -0.101463,0.1013 -0.106948,0.768 -0.01533,1.861 0.05138,0.613 0.03377,0.8801 -0.106402,1.6111 -0.426124,2.2222 -1.25877,3.8485 -2.624635,5.1264 -0.538768,0.504 -0.73465,0.637 -1.088633,0.7389 -0.237406,0.068 -0.631106,0.2244 -0.874891,0.3468 l -0.443245,0.2225 z m -4.381143,-13.6497 c -0.116403,-0.035 -0.333969,-0.1394 -0.483482,-0.2319 -0.223051,-0.1378 -0.271829,-0.2143 -0.271829,-0.4262 l 0,-0.2583 0.522158,-0.051 c 1.304392,-0.1277 2.357634,-0.5584 3.395023,-1.3884 1.106703,-0.8856 2.065262,-2.1618 3.625065,-4.8267 0.502008,-0.8577 0.818665,-1.3226 0.902059,-1.3243 0.156367,0 0.511554,0.4036 0.575793,0.6595 0.103508,0.4123 -0.490893,2.3984 -1.058216,3.5358 -1.095815,2.1968 -2.935306,3.6918 -5.215733,4.239 -0.634482,0.1522 -1.608318,0.1877 -1.990838,0.073 z m -38.543896,-1.0828 -12.531734,-0.039 -0.251923,-0.1797 c -0.316871,-0.2261 -0.80074,-1.2088 -1.015944,-2.0636 -0.371438,-1.4754 -0.586606,-3.0903 -0.706006,-5.2989 -0.04482,-0.8297 -0.153968,-2.6224 -0.242481,-3.9839 -0.175712,-2.7029 -0.163068,-4.3944 0.05175,-6.9234 0.324147,-3.8163 0.913376,-6.1053 1.705202,-6.6242 0.217806,-0.1427 2.501444,-0.2816 9.913169,-0.6031 6.972024,-0.3024 14.50452,-0.054 18.738787,0.6187 0.954914,0.1514 1.130397,0.2857 1.588875,1.2152 0.463418,0.9395 0.729009,2.0074 0.798116,3.2091 0.07519,1.3075 0.04446,1.6168 -0.166355,1.6732 -0.269515,0.072 -1.131855,0.054 -1.284286,-0.028 -0.220336,-0.118 -0.378421,-0.6188 -0.506807,-1.6056 -0.272352,-2.0937 -0.642346,-2.586 -2.224767,-2.9599 -1.767533,-0.4176 -4.455532,-0.5735 -9.804377,-0.5687 -5.198193,0.01 -9.213103,0.1646 -13.241564,0.5276 -0.995514,0.089 -1.280033,0.1434 -1.588911,0.2999 -0.80041,0.4056 -1.398318,1.3532 -1.764666,2.7967 -0.280709,1.1059 -0.33745,1.832 -0.420623,5.3824 -0.11958,5.1044 0.07471,7.5762 0.80334,10.22 0.440316,1.5977 0.806229,2.14 1.756575,2.6036 1.056764,0.5155 0.642918,0.497 11.129527,0.4939 9.089078,0 12.09041,-0.06 13.269984,-0.2517 1.097695,-0.1786 1.726832,-1.3171 2.088027,-3.7783 0.1685,-1.1481 0.188686,-1.2175 0.412539,-1.4175 0.453997,-0.4057 1.04901,-0.3568 1.302163,0.1069 0.227484,0.4166 0.179915,1.7638 -0.11143,3.1555 -0.375627,1.7945 -0.719859,3.0091 -0.920246,3.2472 -0.391059,0.4648 -1.54405,0.7425 -3.277237,0.7893 -0.531824,0.015 -6.606232,0.01 -13.498684,-0.014 z m 35.274502,-1.2697 c -0.504015,-0.1246 -0.807075,-0.288 -1.17147,-0.6316 l -0.296936,-0.28 0.181062,-0.1466 c 0.280299,-0.2271 0.885796,-0.379 1.983555,-0.4981 0.553096,-0.06 1.162272,-0.1599 1.353728,-0.2221 2.104074,-0.6832 3.416086,-1.5241 5.116815,-3.2795 0.83229,-0.8591 2.545403,-2.9838 2.672265,-3.3144 0.02573,-0.068 0.164927,-0.1055 0.381772,-0.1055 0.399065,0 0.398399,-0.046 0.01615,1.1191 -0.863155,2.6309 -2.644211,4.8083 -5.18882,6.3434 -0.572188,0.3453 -0.680551,0.3784 -2.428571,0.7427 -1.966901,0.41 -2.035054,0.4171 -2.619535,0.2726 z m -10.636502,-8.9872 c 2.79857,-0.032 5.147279,-0.019 6.529845,0.036 1.187568,0.048 2.174199,0.072 2.192524,0.054 0.07702,-0.077 -0.827408,-0.5115 -1.368311,-0.6575 -1.065014,-0.2872 -1.553169,-0.3177 -6.232388,-0.3896 -2.552757,-0.039 -6.695193,-0.112 -9.205408,-0.1619 -6.934354,-0.1378 -0.968531,-0.1358 -1.562764,0.028 -1.049939,0.2884 -1.968227,0.7303 -2.746156,1.3216 -0.785964,0.5972 -1.692214,1.6149 -3.848103,4.3212 l -2.326219,2.9203 -0.808273,0 c -0.682218,0 -0.80141,-0.018 -0.764291,-0.1147 0.07454,-0.1943 2.912953,-4.1344 3.544386,-4.9201 1.300004,-1.6177 3.199294,-3.6093 3.917639,-4.1081 0.534583,-0.3711 1.479654,-0.6763 2.403095,-0.7758 1.099753,-0.1186 3.543042,-0.1143 10.545168,0.01 5.940427,0.1038 5.77759,0.09 7.472451,0.627 0.524877,0.1663 0.969026,0.2876 0.986986,0.2697 0.01798,-0.018 -0.06224,-0.1571 -0.178269,-0.3093 -0.272925,-0.3577 -0.879244,-0.7558 -1.51327,-0.9933 -1.058973,-0.3968 -1.417929,-0.4215 -7.4641,-0.5108 -5.452061,-0.08 -1.30623,-0.1385 -7.828631,-0.3403 l -3.055577,-0.095 -0.453591,-0.2261 c -0.798959,-0.3985 -1.437531,-1.101 -4.588034,-5.0479 -1.673164,-2.0962 -3.042118,-3.8298 -3.042118,-3.8526 0,-0.078 1.740113,0.065 1.850542,0.1509 0.06054,0.048 0.873305,1.1077 1.806203,2.3558 2.009148,2.6878 2.609079,3.4155 3.533263,4.2855 0.915221,0.8616 1.759362,1.3874 2.330966,1.5077 1.101497,0.2318 -3.024892,-0.028 3.671111,-0.1186 7.762889,-0.1053 10.364902,-0.049 11.577594,0.249 0.968379,0.2382 2.15749,0.6512 2.900636,1.0073 0.313655,0.1503 0.583815,0.2598 0.600378,0.2432 0.07219,-0.072 -0.230725,-0.5037 -0.588505,-0.8385 -1.122253,-1.0496 -2.793596,-1.7036 -4.885094,-1.9113 -0.83793,-0.083 -8.419679,-0.8592 -10.767278,-0.3839 -1.258167,0.2547 -1.737718,-0.4645 -1.582621,-1.1307 3.669233,-0.61 9.560035,-0.08 10.118351,-0.033 2.618695,0.2214 4.714282,0.7444 6.538715,1.6321 0.884637,0.4304 0.983208,0.502 1.614113,1.172 1.186966,1.2606 2.336351,2.9453 2.993749,4.388 l 0.299601,0.6576 -0.02802,-0.4714 c -0.06242,-1.0512 -1.610572,-3.6139 -4.033767,-6.6775 -0.451495,-0.5709 -0.820901,-1.065 -0.820901,-1.0981 0,-0.1112 0.342174,-0.3008 0.542902,-0.3008 0.353353,0 1.264575,0.615 1.678698,1.1331 2.113009,2.6433 3.433043,4.7962 4.048351,6.6025 0.137677,0.4041 0.332391,0.8211 0.432686,0.9266 l 0.182358,0.1918 0.234002,-0.2339 0.233993,-0.2341 -0.200117,-0.6927 c -0.446914,-1.5467 -0.93442,-2.5033 -2.813683,-5.5204 -1.433891,-2.3021 -1.442834,-2.3277 -0.816483,-2.3277 0.271136,0 0.436373,0.07 0.899467,0.3861 0.312021,0.2122 0.622545,0.4299 0.690051,0.4834 0.197753,0.157 1.747117,2.7842 2.284598,3.874 0.271619,0.5506 0.618684,1.4057 0.771264,1.9 0.40444,1.3103 0.405773,1.3118 0.845988,0.9252 0.281695,-0.2473 0.28644,-0.2607 0.241431,-0.6808 -0.104978,-0.98 -0.668167,-2.7389 -1.335968,-4.1724 -0.186237,-0.3996 -0.338615,-0.7733 -0.338615,-0.8304 0,-0.057 0.100807,-0.2163 0.223991,-0.3542 0.215649,-0.2413 0.232222,-0.2464 0.444796,-0.1365 0.35965,0.1858 0.976464,0.8601 1.239405,1.3549 0.134774,0.2535 0.444386,1.131 0.688053,1.9501 0.243657,0.819 0.470833,1.4891 0.504818,1.4891 0.03404,0 0.176909,-0.1445 0.317597,-0.321 0.649166,-0.8151 0.884565,-0.9285 1.209244,-0.5829 0.209973,0.2235 0.213559,0.5158 0.01351,1.0973 -0.206742,0.601 -0.198702,0.7674 0.04235,0.8772 0.108363,0.049 0.247609,0.089 0.30942,0.089 0.151995,0 0.141363,0.201 -0.03824,0.7231 -0.531312,1.5442 -1.676992,2.9067 -3.485107,4.1446 -1.717594,1.1759 -3.946085,1.9109 -6.059495,1.9986 -1.048332,0.044 -1.658256,-0.078 -2.178963,-0.4347 -0.400079,-0.274 -0.414416,-0.5142 -0.04554,-0.7628 0.403017,-0.2717 0.935688,-0.3985 2.047775,-0.4878 3.45365,-0.2772 6.067179,-1.5323 7.96432,-3.8245 0.297747,-0.3596 0.304455,-0.3774 0.08971,-0.2365 -2.355854,1.5459 -4.922722,2.6744 -6.867473,3.0194 -0.583449,0.1035 -1.016674,0.1253 -1.895233,0.095 -1.206752,-0.042 -1.927165,-0.1868 -2.761025,-0.5555 -0.461123,-0.2039 -0.51995,-0.3097 -0.486147,-0.8732 l 0.01962,-0.3275 -6.343215,-0.039 c -3.488774,-0.022 -8.728755,0.5887 -8.132678,-0.8012 -0.04532,-0.5513 5.458081,-0.5723 7.861934,-0.6001 z"
           id="path2161-7"
           inkscape:connector-curvature="0"
           sodipodi:nodetypes="sssscscsscsssssscssssssssscsssscssssssssssssssssssssssssscsssscsssssssssssssssssssssssssssssssssssssssssscsssssssssssscsssssscssssssscsssscsssssssssscsssscssscssssssscccsssscsssssssssssssssssssssssssssscsscs" />
        <path
           inkscape:connector-curvature="0"
           style="fill:#92bcd7;fill-opacity:1"
           d="m 41.580012,1118.2362 c -4.668756,0 -8.454115,3.8556 -8.454115,8.6123 0,4.7569 3.785359,8.6124 8.454115,8.6124 4.668757,0 8.454109,-3.8555 8.454109,-8.6124 0,-4.7567 -3.785352,-8.6123 -8.454109,-8.6123 z m -3.53653,2.8436 4.742546,2.8676 4.742552,2.87 -4.809679,2.75 -4.809686,2.7502 0.06712,-5.6201 0.06712,-5.6177 z"
           id="path3041" />
      </g>
      <g
         transform="matrix(3.874061,0,0,3.874061,546.36764,-3090.8769)"
         id="g4165">
        <path
           style="fill:#000000;fill-rule:evenodd;stroke:none;stroke-width:1px;stroke-linecap:butt;stroke-linejoin:miter;stroke-opacity:1"
           d="m 150.04604,959.51945 c 0,0 4.97035,5.38926 5.96927,15.37358 1.33549,13.34852 0.0721,36.27667 -0.61602,45.51967 -0.58055,7.798 -31.52046,8.5954 -28.10456,1.5614 9.73258,-19.2225 -0.0408,-41.94145 22.75131,-62.45465 z"
           id="path4752"
           inkscape:connector-curvature="0"
           sodipodi:nodetypes="csscc"
           inkscape:export-filename="/home/wonko/Downloads/dxdwxx"
           inkscape:export-xdpi="276.39487"
           inkscape:export-ydpi="276.39487" />
        <path
           style="fill:#4c82aa;fill-opacity:1;fill-rule:evenodd;stroke:none;stroke-width:1px;stroke-linecap:butt;stroke-linejoin:miter;stroke-opacity:1"
           d="m 135.32461,1001.6763 c -1.515,-12.01195 4.7579,-26.60764 12.71397,-37.24973 7.95608,-10.64209 9.10377,46.19683 3.56883,45.72573 -5.53495,-0.4711 -14.76781,3.5359 -16.2828,-8.476 z"
           id="path4157"
           inkscape:connector-curvature="0"
           sodipodi:nodetypes="zzzz"
           inkscape:export-filename="/home/wonko/Downloads/dxdwxx"
           inkscape:export-xdpi="276.39487"
           inkscape:export-ydpi="276.39487" />
        <path
           style="fill:#ffffff;fill-rule:evenodd;stroke:none;stroke-width:1px;stroke-linecap:butt;stroke-linejoin:miter;stroke-opacity:1"
           d="m 130.41746,1022.6432 c -3.09674,-1.1404 0.59333,-8.3331 3.79188,-9.1451 6.11029,-1.5513 12.51277,-1.1736 17.62112,1.1153 2.32282,1.0408 1.45705,6.604 -0.8922,7.5837 -0.40656,0.1695 -1.70003,2.0319 -2.70249,1.1879 -1.07752,-0.9073 -1.88813,-4.5257 -2.96926,-4.3174 -1.14451,0.2205 -1.78031,5.1611 -2.52585,4.7943 -1.66804,-0.8208 -0.57344,-4.8075 -2.33529,-4.997 -1.04542,-0.1125 -2.28333,4.582 -3.2219,4.242 -1.44521,-0.5236 -1.10784,-4.5527 -2.50677,-4.815 -0.61414,-0.1152 -1.43085,3.0363 -2.3668,4.3298 -0.67804,0.937 -1.52465,0.1569 -1.89244,0.021 z"
           id="path4159"
           inkscape:connector-curvature="0"
           sodipodi:nodetypes="ssssssssssss"
           inkscape:export-filename="/home/wonko/Downloads/dxdwxx"
           inkscape:export-xdpi="276.39487"
           inkscape:export-ydpi="276.39487" />
      </g>
      <path
         inkscape:export-ydpi="276"
         inkscape:export-xdpi="276"
         inkscape:export-filename="/home/wonko/Downloads/dxdwxx"
         inkscape:connector-curvature="0"
         id="path4179"
         d="m 1031.1204,601.82458 61.5536,-9.9472"
         style="fill:#92bcd7;fill-opacity:1;fill-rule:evenodd;stroke:#000000;stroke-width:3.54034734px;stroke-linecap:butt;stroke-linejoin:miter;stroke-opacity:1" />
      <path
         inkscape:export-ydpi="276"
         inkscape:export-xdpi="276"
         inkscape:export-filename="/home/wonko/Downloads/dxdwxx"
         inkscape:connector-curvature="0"
         id="path4179-8"
         d="m 1035.4435,615.29415 62.272,-3.16193"
         style="fill:#92bcd7;fill-opacity:1;fill-rule:evenodd;stroke:#000000;stroke-width:3.54034734px;stroke-linecap:butt;stroke-linejoin:miter;stroke-opacity:1" />
      <path
         inkscape:export-ydpi="276"
         inkscape:export-xdpi="276"
         inkscape:export-filename="/home/wonko/Downloads/dxdwxx"
         inkscape:connector-curvature="0"
         id="path4179-4-8"
         d="m 912.91071,634.40009 -62.17657,4.67668"
         style="fill:#92bcd7;fill-opacity:1;fill-rule:evenodd;stroke:#000000;stroke-width:3.54034734px;stroke-linecap:butt;stroke-linejoin:miter;stroke-opacity:1" />
      <path
         inkscape:export-ydpi="276"
         inkscape:export-xdpi="276"
         inkscape:export-filename="/home/wonko/Downloads/dxdwxx"
         inkscape:connector-curvature="0"
         id="path4179-9"
         d="m 911.5773,608.49861 -61.55364,-9.94718"
         style="fill:#92bcd7;fill-opacity:1;fill-rule:evenodd;stroke:#000000;stroke-width:3.54034734px;stroke-linecap:butt;stroke-linejoin:miter;stroke-opacity:1" />
      <path
         inkscape:export-ydpi="276"
         inkscape:export-xdpi="276"
         inkscape:export-filename="/home/wonko/Downloads/dxdwxx"
         inkscape:connector-curvature="0"
         id="path4179-8-3"
         d="m 907.2542,621.96818 -62.27197,-3.16193"
         style="fill:#92bcd7;fill-opacity:1;fill-rule:evenodd;stroke:#000000;stroke-width:3.54034734px;stroke-linecap:butt;stroke-linejoin:miter;stroke-opacity:1" />
    </g>
    <g
       id="g4362"
       transform="translate(114.57278,42.394455)">
      <path
         sodipodi:nodetypes="sssscscsscsssssscssssssssscsssscssssssssssssssssssssssssscsssscsssssssssssssssssssssssssssssssssssssssssscsssssssssssscsssssscssssssscsssscsssssssssscsssscssscssssssscccsssscsssssssssssssssssssssssssssscsscs"
         inkscape:connector-curvature="0"
         id="path2161-7-6"
         d="m 522.97858,791.01701 c -11.62768,-7.84199 -17.73924,-20.52282 -18.87428,-39.15995 -0.84584,-13.88904 0.54258,-24.3558 6.51639,-49.12301 5.33526,-22.12015 6.04839,-26.54602 6.3883,-39.65139 l 0.29547,-11.39269 -1.65109,-3.0339 c -0.90817,-1.66806 -1.80934,-3.01622 -2.00277,-2.99468 -0.59939,0.0768 -7.87326,8.69486 -12.29268,14.58347 -9.6369,12.83929 -15.10627,25.50475 -16.10219,37.28658 l -0.38529,4.55814 -3.10971,0.64602 c -6.2645,1.30045 -6.41414,1.25739 -7.29746,-2.08412 -1.18051,-4.4651 -0.62325,-15.62017 1.02574,-20.52439 2.23606,-6.65227 7.25479,-15.96854 14.42845,-26.78444 7.96356,-12.00869 13.15551,-21.49107 15.06719,-27.52042 1.56461,-4.93498 1.75276,-5.04956 9.17657,-5.57637 l 5.15226,-0.36914 1.84214,4.69121 c 4.38706,11.17273 6.00178,19.0301 6.52718,31.75939 0.60009,14.54349 -0.93386,27.5258 -6.99434,59.19295 -5.25278,27.44888 -5.18842,26.82056 -3.6271,35.35701 2.69653,14.74191 6.40423,23.28296 13.36093,30.77351 1.6765,1.80495 1.72837,2.02873 1.30993,5.65172 -0.24002,2.07489 -0.66393,4.37436 -0.9423,5.1111 -0.79707,2.10566 -3.2724,1.6627 -7.8114,-1.39967 z m -53.32981,-58.9768 -2.60166,-0.23073 0.32,-2.38481 c 0.49058,-3.65837 2.84135,-6.6992 6.59976,-8.538 2.91526,-1.42657 4.27014,-1.65267 12.6721,-2.11795 5.17432,-0.28454 10.41179,-0.53064 11.63876,-0.54602 l 2.23094,0 0,5.64096 c 0,6.66535 1.70681,5.74173 -13.7212,7.42826 -10.84877,1.18664 -11.90587,1.23433 -17.1386,0.76905 z m 53.70416,-7.61744 c -0.49197,-1.96031 0.13837,-5.85861 1.31687,-8.13654 1.4102,-2.72782 5.39652,-6.80455 10.34337,-10.58134 5.09831,-3.89138 9.52258,-8.43108 10.99953,-11.28734 3.18027,-6.15007 5.33456,-26.49143 3.9254,-37.06354 -1.91953,-14.40197 -9.37244,-30.4351 -19.09035,-41.0672 -1.63537,-1.78959 -2.97342,-3.51764 -2.97342,-3.83987 0,-0.323 2.85516,-3.23001 6.34479,-6.46156 4.4731,-4.14055 6.42843,-5.60944 6.62845,-4.98113 0.78734,2.47712 10.71536,20.99812 12.94552,24.15046 4.82524,6.82146 11.22961,11.68261 17.51951,13.29838 1.46691,0.37684 3.67637,1.07437 4.91001,1.5481 3.24728,1.24817 7.70585,1.06436 15.19147,-0.62293 11.1988,-2.52786 14.76386,-1.80881 17.33043,3.49225 2.12833,4.39665 1.70174,5.17186 -3.87193,7.04218 -9.77383,3.27923 -22.65232,3.42073 -35.55959,0.39222 -3.97622,-0.93362 -5.42965,-1.06821 -5.94916,-0.54602 -0.78031,0.77904 -0.8225,5.90629 -0.11792,14.312 0.39514,4.71427 0.2597,6.7684 -0.81828,12.39015 -3.2771,17.08981 -9.68056,29.59684 -20.18474,39.42451 -4.14339,3.87601 -5.64982,4.89885 -8.37212,5.68252 -1.82576,0.52294 -4.85351,1.72574 -6.72834,2.66705 l -3.40877,1.71114 z M 489.65979,619.4499 c -0.89519,-0.26916 -2.56837,-1.07206 -3.71822,-1.78343 -1.71536,-1.05974 -2.09049,-1.64807 -2.09049,-3.27768 l 0,-1.98645 4.01565,-0.39222 c 10.03142,-0.98208 18.13136,-4.29436 26.10939,-10.67749 8.5111,-6.81068 15.88288,-16.62529 27.87852,-37.11968 3.86069,-6.59613 6.29594,-10.17144 6.93727,-10.1845 1.20255,0 3.93412,3.10388 4.42814,5.07187 0.79603,3.17078 -3.77521,18.44488 -8.13819,27.19202 -8.42737,16.89448 -22.57395,28.39176 -40.11155,32.6 -4.87947,1.17049 -12.36875,1.4435 -15.31052,0.56139 z m -296.42141,-8.32727 -96.375169,-0.29992 -1.93741,-1.38198 c -2.4369,-1.73883 -6.158087,-9.29627 -7.81311,-15.87011 -2.856541,-11.34653 -4.511289,-23.76592 -5.429533,-40.75113 -0.344687,-6.3808 -1.184089,-20.16752 -1.864797,-30.63814 -1.351312,-20.78662 -1.254072,-33.79508 0.397983,-53.24432 2.492849,-29.34922 7.024308,-46.95276 13.113837,-50.94335 1.67504,-1.09744 19.237319,-2.16563 76.237129,-4.63812 53.61826,-2.32562 111.54684,-0.41529 144.11043,4.7581 7.34377,1.16433 8.69331,2.19717 12.21923,9.34548 3.56391,7.22522 5.60643,15.43789 6.1379,24.67955 0.57825,10.05531 0.34192,12.43398 -1.27935,12.86773 -2.07271,0.55371 -8.70453,0.41527 -9.87678,-0.21534 -1.6945,-0.90748 -2.91025,-4.75888 -3.89759,-12.34785 -2.09453,-16.10157 -4.93996,-19.8876 -17.10956,-22.76307 -13.5932,-3.21155 -34.26522,-4.41051 -75.40045,-4.37359 -39.97666,0.0768 -70.85327,1.26586 -101.83412,4.0575 -7.65598,0.68445 -9.84406,1.10281 -12.2195,2.30637 -6.15553,3.11927 -10.753739,10.40678 -13.571139,21.508 -2.15879,8.50491 -2.59516,14.08898 -3.2348,41.3933 -0.91963,39.25532 0.57456,58.26468 6.17808,78.59679 3.386249,12.28711 6.200299,16.45765 13.508929,20.02295 8.12703,3.96445 4.94434,3.82218 85.59149,3.79834 69.89947,0 92.98118,-0.46142 102.05268,-1.9357 8.44181,-1.37352 13.28018,-10.12913 16.05796,-29.05696 1.29585,-8.82945 1.45108,-9.36318 3.17262,-10.90127 3.49146,-3.12004 8.06741,-2.74398 10.01428,0.8221 1.74945,3.20387 1.38363,13.56449 -0.85696,24.26734 -2.88875,13.80058 -5.53607,23.14146 -7.07715,24.97256 -3.00744,3.57455 -11.87449,5.71018 -25.20356,6.07011 -4.08997,0.11533 -50.80514,0.0768 -103.81147,-0.1076 z m 271.27817,-9.76461 c -3.87611,-0.95824 -6.2068,-2.21486 -9.00918,-4.85732 l -2.28357,-2.15332 1.39245,-1.12743 c 2.15564,-1.74651 6.81221,-2.9147 15.25452,-3.83063 4.25356,-0.46145 8.93843,-1.22971 10.41082,-1.70806 16.18136,-5.25415 26.27138,-11.72109 39.3508,-25.22096 6.40074,-6.60691 19.57541,-22.94689 20.55103,-25.48936 0.19792,-0.52296 1.26838,-0.81136 2.93602,-0.81136 3.069,0 3.06388,-0.35375 0.12427,8.60644 -6.63809,20.2329 -20.33529,36.97817 -39.90457,48.78386 -4.40041,2.65552 -5.23378,2.91007 -18.6769,5.71171 -15.12644,3.15311 -15.65057,3.2077 -20.14551,2.09643 z m -81.79991,-69.11596 c 21.52237,-0.2461 39.58511,-0.14611 50.21771,0.27684 9.13298,0.36916 16.72066,0.55373 16.86158,0.41529 0.59232,-0.59216 -6.36317,-3.93368 -10.52298,-5.05649 -8.19048,-2.2087 -11.94463,-2.44327 -47.93011,-2.99622 -19.63194,-0.29991 -51.4893,-0.86133 -70.79409,-1.24509 -53.32857,-1.05974 -7.44848,-1.04435 -12.01841,0.21535 -8.07455,2.21793 -15.13665,5.61635 -21.1193,10.16375 -6.04444,4.59276 -13.01395,12.41937 -29.5938,33.23214 l -17.88975,22.45853 -6.21602,0 c -5.24658,0 -6.16323,-0.13836 -5.87777,-0.88211 0.57324,-1.49426 22.40204,-31.79554 27.25807,-37.83796 9.99765,-12.44091 24.60413,-27.75729 30.12855,-31.5933 4.11121,-2.85395 11.37927,-5.20108 18.48099,-5.96629 8.45763,-0.91208 27.24772,-0.87901 81.09749,0.0768 45.6848,0.79827 44.4325,0.69215 57.4668,4.82194 4.03657,1.27892 7.45229,2.21179 7.59042,2.07412 0.13836,-0.13837 -0.47865,-1.20817 -1.37099,-2.37868 -2.09893,-2.75088 -6.7618,-5.81246 -11.63778,-7.63895 -8.14401,-3.05159 -10.90456,-3.24155 -57.40259,-3.9283 -41.929,-0.61525 -10.04554,-1.06514 -60.20599,-2.61707 l -23.49888,-0.7306 -3.48834,-1.73881 c -6.14439,-3.06468 -11.05531,-8.46725 -35.28424,-38.82084 -12.86743,-16.12079 -23.39537,-29.45304 -23.39537,-29.62836 0,-0.59987 13.38233,0.49987 14.23158,1.16048 0.46558,0.36915 6.71613,8.51876 13.89059,18.11725 15.45133,20.67051 20.06509,26.26687 27.17251,32.95759 7.03851,6.62613 13.53036,10.66978 17.92628,11.59495 8.47104,1.78266 -23.26291,-0.21533 28.23264,-0.91208 59.70041,-0.80982 79.71117,-0.37684 89.03735,1.91493 7.44731,1.83187 16.59216,5.00805 22.30731,7.74662 2.41217,1.15588 4.48984,1.99799 4.6172,1.87035 0.55518,-0.55373 -1.77438,-3.87371 -4.52588,-6.44848 -8.63068,-8.07195 -21.48412,-13.10154 -37.56876,-14.69885 -6.44411,-0.63829 -64.75145,-6.60766 -82.80563,-2.95237 -9.67593,1.95876 -13.36391,-3.57223 -12.17115,-8.69564 28.21821,-4.6912 73.52135,-0.61524 77.81507,-0.25377 20.13906,1.70266 36.25514,5.72479 50.28592,12.55163 6.80329,3.31 7.56135,3.86063 12.41333,9.01326 9.12835,9.69463 17.96767,22.65079 23.02338,33.74587 l 2.3041,5.05726 -0.21551,-3.62529 c -0.48002,-8.08424 -12.38608,-27.79267 -31.02164,-51.35324 -3.4722,-4.3905 -6.31313,-8.19038 -6.31313,-8.44494 0,-0.85517 2.6315,-2.3133 4.17519,-2.3133 2.71746,0 9.7252,4.72966 12.91001,8.7141 16.25006,20.32828 26.40179,36.88512 31.1338,50.77646 1.05881,3.10773 2.55625,6.31465 3.32757,7.12599 l 1.40243,1.47505 1.79957,-1.7988 1.79954,-1.80035 -1.53901,-5.3272 c -3.43698,-11.89487 -7.18615,-19.2516 -21.6386,-42.45458 -11.02732,-17.70428 -11.09611,-17.90115 -6.27914,-17.90115 2.08515,0 3.35591,0.53833 6.91734,2.96929 2.39957,1.63193 4.78766,3.30614 5.30683,3.71758 1.5208,1.20741 13.43617,21.41188 17.56967,29.79297 2.08889,4.23439 4.75798,10.81051 5.93139,14.61192 3.11035,10.07686 3.12059,10.0884 6.50606,7.11524 2.16637,-1.90185 2.20288,-2.0049 1.85673,-5.23569 -0.80733,-7.53668 -5.13853,-21.06347 -10.27425,-32.08779 -1.43226,-3.07311 -2.60412,-5.94705 -2.60412,-6.38618 0,-0.43836 0.77527,-1.66346 1.72261,-2.72397 1.65843,-1.85571 1.7859,-1.89494 3.42069,-1.04975 2.76589,1.42889 7.5095,6.61459 9.53163,10.41983 1.03649,1.94955 3.41754,8.69796 5.29146,14.99723 1.87386,6.29852 3.62095,11.45192 3.88231,11.45192 0.26178,0 1.36052,-1.11129 2.44247,-2.46866 4.99241,-6.26852 6.80274,-7.14061 9.29967,-4.48278 1.6148,1.71882 1.64239,3.96675 0.10382,8.43878 -1.58994,4.62198 -1.5281,5.90167 0.3257,6.7461 0.83336,0.37682 1.90423,0.68445 2.37959,0.68445 1.16892,0 1.08715,1.54578 -0.29408,5.56099 -4.08605,11.87566 -12.89689,22.35394 -26.80218,31.87399 -13.20913,9.04325 -30.34732,14.69577 -46.60048,15.37022 -8.06218,0.33838 -12.75281,-0.59987 -16.7573,-3.34305 -3.0768,-2.10721 -3.18705,-3.95444 -0.35021,-5.86632 3.09939,-2.0895 7.19589,-3.06465 15.74838,-3.7514 26.56026,-2.13181 46.65957,-11.78415 61.24952,-29.41229 2.28982,-2.76549 2.34141,-2.90239 0.68992,-1.81881 -18.11768,11.88875 -37.85815,20.56745 -52.81422,23.22067 -4.48702,0.79597 -7.81873,0.96362 -14.57528,0.7306 -9.28051,-0.323 -14.82085,-1.43657 -21.23363,-4.27206 -3.54627,-1.56809 -3.99868,-2.38175 -3.7387,-6.71534 l 0.15087,-2.51864 -48.78245,-0.29992 c -26.83037,-0.16913 -67.1284,4.5274 -62.54427,-6.16162 -0.34853,-4.23977 41.97532,-4.40128 60.46212,-4.61508 z"
         style="fill:#000000;fill-opacity:1" />
      <path
         id="path3041-6"
         d="m 175.26455,442.20796 c -35.905,0 -65.01628,29.65145 -65.01628,66.23281 0,36.58288 29.11128,66.23356 65.01628,66.23356 35.90503,0 65.01623,-29.65068 65.01623,-66.23356 0,-36.58136 -29.1112,-66.23281 -65.01623,-66.23281 z m -27.19764,21.86867 36.4725,22.05325 36.47255,22.0717 -36.98878,21.14885 -36.98885,21.15038 0.51619,-43.22132 0.51617,-43.20286 z"
         style="fill:#000000;fill-opacity:1"
         inkscape:connector-curvature="0" />
    </g>
    <text
       xml:space="preserve"
       style="font-style:normal;font-weight:normal;font-size:40px;line-height:125%;font-family:sans-serif;letter-spacing:0px;word-spacing:0px;fill:#000000;fill-opacity:1;stroke:none;stroke-width:1px;stroke-linecap:butt;stroke-linejoin:miter;stroke-opacity:1"
       x="268.78381"
       y="920.91199"
       id="text4332"
       sodipodi:linespacing="125%"><tspan
         sodipodi:role="line"
         id="tspan4334"
         x="268.78381"
         y="920.91199"
         style="font-style:normal;font-variant:normal;font-weight:500;font-stretch:condensed;font-size:60px;font-family:OSP-DIN;-inkscape-font-specification:'OSP-DIN Medium Condensed'">https://media.ccc.de</tspan></text>
  </g>
</svg>
